<svg xmlns="http://www.w3.org/2000/svg" xmlns:xlink="http://www.w3.org/1999/xlink" xmlns:svgjs="http://svgjs.com/svgjs" version="1.1" width="512" height="512" x="0" y="0" viewBox="0 0 512 512" style="enable-background:new 0 0 512 512" xml:space="preserve" class=""><g><path d="M455.99 266h-210V56c0-5.523-4.477-10-10-10-127.113 0-230 102.869-230 230 0 127.114 102.868 230 230 230 127.115 0 230-102.867 230-230 0-5.522-4.477-10-10-10zm-220 220c-115.794 0-210-94.206-210-210 0-112.444 88.828-204.531 200-209.765V276c0 5.522 4.477 10 10 10h209.765c-5.234 111.173-97.32 200-209.765 200z" fill="#e9204f" data-original="#000000"/><path d="M275.99 6c-5.522 0-10 4.477-10 10v220c0 5.523 4.478 10 10 10h220.02c5.523 0 10-4.477 10-10 0-126.681-102.493-230-230.02-230zm10 220V26.235C393.851 31.313 480.677 118.14 485.755 226z" fill="#e9204f" data-original="#000000"/></g></svg>