<svg xmlns="http://www.w3.org/2000/svg" xmlns:xlink="http://www.w3.org/1999/xlink" xmlns:svgjs="http://svgjs.com/svgjs" version="1.1" width="512" height="512" x="0" y="0" viewBox="0 0 24 24" style="enable-background:new 0 0 512 512" xml:space="preserve" class=""><g><path d="M22.628 1.96a.748.748 0 0 0-.588-.588S15.713.065 9.825 5.953c-3.454 3.454-3.203 7.139-3.203 7.139a.752.752 0 0 0 .219.487l3.58 3.58c.13.13.303.208.487.219 0 0 3.685.251 7.139-3.203C23.935 8.287 22.628 1.96 22.628 1.96zm-1.408.82c.12 1.513.057 6.043-4.234 10.335-2.404 2.403-4.92 2.723-5.726 2.762L8.123 12.74c.039-.807.359-3.323 2.762-5.726C15.177 2.722 19.707 2.66 21.22 2.78z" fill="#e9204f" data-original="#000000" class=""/><path d="m11.476 16.946-.663 3.316a.749.749 0 0 0 1.031.836l4.337-1.859a3 3 0 0 0 1.806-2.486l.276-3.04a.75.75 0 0 0-1.494-.136l-.276 3.04a1.502 1.502 0 0 1-.903 1.244l-3.027 1.297.384-1.918a.75.75 0 1 0-1.471-.294zM6.76 11.053l-1.918.384L6.139 8.41a1.502 1.502 0 0 1 1.244-.903l3.04-.276a.75.75 0 0 0-.136-1.494l-3.04.276a3 3 0 0 0-2.486 1.806l-1.859 4.337a.75.75 0 0 0 .836 1.031l3.316-.663a.75.75 0 0 0-.294-1.471zM9.692 14.308a3.003 3.003 0 0 0-4.244 0c-1.646 1.647-4.137 7.397-4.137 7.397a.749.749 0 0 0 .984.984s5.75-2.491 7.397-4.137a3.003 3.003 0 0 0 0-4.244zm-1.061 1.061a1.5 1.5 0 0 1 0 2.122c-.96.96-3.423 2.211-5.137 3.015.804-1.714 2.055-4.177 3.015-5.137a1.5 1.5 0 0 1 2.122 0zM18.047 5.953A2.438 2.438 0 1 0 14.6 9.401a2.438 2.438 0 0 0 3.447-3.448zm-1.061 1.061a.94.94 0 1 1-1.33 1.327.94.94 0 0 1 1.33-1.327zM12.079 12.982l1.193-1.194a.749.749 0 1 0-1.06-1.06l-1.194 1.193a.75.75 0 1 0 1.061 1.061z" fill="#e9204f" data-original="#000000" class=""/></g></svg>