<svg xmlns="http://www.w3.org/2000/svg" xmlns:xlink="http://www.w3.org/1999/xlink" xmlns:svgjs="http://svgjs.com/svgjs" version="1.1" width="512" height="512" x="0" y="0" viewBox="0 0 32 32" style="enable-background:new 0 0 512 512" xml:space="preserve"><g><path d="M9 18H3a1 1 0 0 0-1 1v10a1 1 0 0 0 1 1h6a1 1 0 0 0 1-1V19a1 1 0 0 0-1-1zM8 28H4v-8h4zM29 10h-6a1 1 0 0 0-1 1v18a1 1 0 0 0 1 1h6a1 1 0 0 0 1-1V11a1 1 0 0 0-1-1zm-1 18h-4V12h4zM19 2h-6a1 1 0 0 0-1 1v26a1 1 0 0 0 1 1h6a1 1 0 0 0 1-1V3a1 1 0 0 0-1-1zm-1 26h-4V4h4z" fill="#ffffff" data-original="#000000"/></g></svg>